<svg xmlns="http://www.w3.org/2000/svg" xmlns:xlink="http://www.w3.org/1999/xlink" version="1.1" width="1000" height="1000" viewBox="0 0 1000 1000" xml:space="preserve">
<desc>Created with Fabric.js 3.5.0</desc>
<defs>
</defs>
<rect x="0" y="0" width="100%" height="100%" fill="rgba(255,255,255,0)"/>
<g transform="matrix(28.4091 0 0 28.4091 500.0002 500.0001)" id="262713">
<path style="stroke: none; stroke-width: 1; stroke-dasharray: none; stroke-linecap: butt; stroke-dashoffset: 0; stroke-linejoin: miter; stroke-miterlimit: 4; is-custom-font: none; font-file-url: none; fill: rgb(97,188,85); fill-rule: nonzero; opacity: 1;" vector-effect="non-scaling-stroke" transform=" translate(-16.4, -16)" d="M 31.4966 0.931172 C 30.6963 0.109757 29.5118 -0.196261 28.4074 0.125863 L 2.65282 7.61524 C 1.48754 7.93897 0.661604 8.8683 0.439113 10.0489 C 0.21182 11.2504 1.00574 12.7757 2.04297 13.4135 L 10.0959 18.3629 C 10.9218 18.8702 11.9878 18.743 12.6713 18.0537 L 21.8927 8.77488 C 22.3569 8.2917 23.1252 8.2917 23.5894 8.77488 C 24.0536 9.24196 24.0536 9.99895 23.5894 10.4821 L 14.352 19.7625 C 13.6669 20.4503 13.5389 21.5213 14.0431 22.3524 L 18.9635 30.486 C 19.5397 31.4524 20.5321 32 21.6206 32 C 21.7486 32 21.8927 32 22.0207 31.9839 C 23.2693 31.8228 24.2617 30.9692 24.6298 29.7612 L 32.2649 4.03967 C 32.6011 2.94445 32.297 1.75259 31.4966 0.931172" stroke-linecap="round"/>
</g>
</svg>