<svg xmlns="http://www.w3.org/2000/svg" xmlns:xlink="http://www.w3.org/1999/xlink" version="1.1" width="1000" height="1000" viewBox="0 0 1000 1000" xml:space="preserve">
<desc>Created with Fabric.js 3.5.0</desc>
<defs>
</defs>
<rect x="0" y="0" width="100%" height="100%" fill="rgba(255,255,255,0)"/>
<g transform="matrix(28.4091 0 0 28.4091 499.9994 499.9992)" id="859577">
<path style="stroke: none; stroke-width: 1; stroke-dasharray: none; stroke-linecap: butt; stroke-dashoffset: 0; stroke-linejoin: miter; stroke-miterlimit: 4; is-custom-font: none; font-file-url: none; fill: rgb(97,188,85); fill-rule: evenodd; opacity: 1;" vector-effect="non-scaling-stroke" transform=" translate(-14, -16)" d="M 13.5649 31.8619 C 13.7421 31.9544 13.9402 32.0015 14.1384 31.9999 C 14.3365 31.9984 14.533 31.9497 14.7118 31.8556 L 20.4204 28.8039 C 22.0392 27.941 23.3069 26.9761 24.2959 25.8527 C 26.4463 23.4051 27.6206 20.2813 27.5997 17.0602 L 27.532 6.43517 C 27.5256 5.21138 26.7218 4.11938 25.533 3.72243 L 14.9131 0.159303 C 14.2737 -0.0572148 13.573 -0.0525079 12.9448 0.170286 L 2.36516 3.8605 C 1.18284 4.27314 0.393559 5.37298 0.400003 6.59834 L 0.467655 17.2155 C 0.488595 20.4413 1.70312 23.551 3.88895 25.9735 C 4.88764 27.0812 6.1666 28.032 7.80315 28.8808 L 13.5649 31.8619 Z M 12.0537 19.3743 C 12.2921 19.6034 12.6014 19.7163 12.9106 19.7132 C 13.2199 19.7116 13.5276 19.5955 13.7627 19.3633 L 20.0013 13.213 C 20.47 12.7501 20.4652 12.0064 19.9916 11.5498 C 19.5164 11.0933 18.7513 11.0964 18.2826 11.5593 L 12.8929 16.8718 L 10.6861 14.7505 C 10.211 14.294 9.44745 14.2987 8.9771 14.7615 C 8.50837 15.2244 8.5132 15.9681 8.98838 16.4246 L 12.0537 19.3743 Z" stroke-linecap="round"/>
</g>
</svg>