<svg xmlns="http://www.w3.org/2000/svg" xmlns:xlink="http://www.w3.org/1999/xlink" version="1.1" width="1000" height="1000" viewBox="0 0 1000 1000" xml:space="preserve">
<desc>Created with Fabric.js 3.5.0</desc>
<defs>
</defs>
<rect x="0" y="0" width="100%" height="100%" fill="rgba(255,255,255,0)"/>
<g transform="matrix(28.4054 0 0 28.4054 500.0004 500.0005)" id="498248">
<path style="stroke: none; stroke-width: 1; stroke-dasharray: none; stroke-linecap: butt; stroke-dashoffset: 0; stroke-linejoin: miter; stroke-miterlimit: 4; is-custom-font: none; font-file-url: none; fill: rgb(97,188,85); fill-rule: nonzero; opacity: 1;" vector-effect="non-scaling-stroke" transform=" translate(-16.0015, -16.0012)" d="M 25.4696 19.7122 C 25.0552 20.1138 24.8648 20.6946 24.9592 21.2642 L 26.3816 29.1362 C 26.5016 29.8034 26.22 30.4786 25.6616 30.8642 C 25.1144 31.2642 24.3864 31.3122 23.7896 30.9922 L 16.7032 27.2962 C 16.4568 27.165 16.1832 27.0946 15.9032 27.0866 H 15.4696 C 15.3192 27.109 15.172 27.157 15.0376 27.2306 L 7.94959 30.9442 C 7.59919 31.1202 7.20239 31.1826 6.81359 31.1202 C 5.86639 30.941 5.23439 30.0386 5.38959 29.0866 L 6.81359 21.2146 C 6.90799 20.6402 6.71759 20.0562 6.30319 19.6482 L 0.525591 14.0482 C 0.042391 13.5794 -0.125609 12.8754 0.095191 12.2402 C 0.309591 11.6066 0.856791 11.1442 1.51759 11.0402 L 9.46959 9.88663 C 10.0744 9.82423 10.6056 9.45623 10.8776 8.91223 L 14.3816 1.72823 C 14.4648 1.56823 14.572 1.42103 14.7016 1.29623 L 14.8456 1.18423 C 14.9208 1.10103 15.0072 1.03223 15.1032 0.976232 L 15.2776 0.912232 L 15.5496 0.800232 H 16.2232 C 16.8248 0.862632 17.3544 1.22263 17.6312 1.76023 L 21.1816 8.91223 C 21.4376 9.43543 21.9352 9.79863 22.5096 9.88663 L 30.4616 11.0402 C 31.1336 11.1362 31.6952 11.6002 31.9176 12.2402 C 32.1272 12.8818 31.9464 13.5858 31.4536 14.0482 L 25.4696 19.7122 Z" stroke-linecap="round"/>
</g>
</svg>